<?xml version="1.0" standalone="no"?>
<!DOCTYPE svg PUBLIC "-//W3C//DTD SVG 20010904//EN"
 "http://www.w3.org/TR/2001/REC-SVG-20010904/DTD/svg10.dtd">
<svg version="1.0" xmlns="http://www.w3.org/2000/svg"
 width="1280.000000pt" height="1096.000000pt" viewBox="0 0 1280.000000 1096.000000"
 preserveAspectRatio="xMidYMid meet">
<metadata>
Created by potrace 1.15, written by Peter Selinger 2001-2017
</metadata>
<g transform="translate(0.000000,1096.000000) scale(0.100000,-0.100000)"
fill="#009688" stroke="none">
<path d="M9595 10950 c-55 -5 -289 -23 -520 -40 -231 -17 -539 -39 -685 -50
-146 -11 -821 -60 -1500 -110 -679 -50 -1356 -99 -1505 -110 -525 -39 -1094
-80 -2320 -170 -682 -50 -1283 -97 -1335 -106 -431 -68 -820 -265 -1125 -569
-338 -336 -542 -764 -594 -1247 -20 -178 -23 -119 89 -1643 16 -220 43 -587
60 -815 17 -228 62 -847 100 -1375 38 -528 77 -1009 85 -1068 61 -424 249
-811 544 -1120 161 -168 358 -313 586 -429 66 -34 246 -129 400 -212 374 -201
455 -239 604 -288 69 -23 128 -42 129 -44 4 -2 81 -1045 82 -1090 0 -14 75
-89 244 -243 l245 -221 698 533 c384 294 846 647 1026 784 l328 251 122 6 c67
4 583 22 1147 41 3304 112 4525 156 4605 165 929 109 1647 875 1691 1805 3 66
-4 379 -15 695 -11 316 -39 1099 -61 1740 -71 2068 -79 2261 -95 2364 -61 397
-215 711 -516 1051 -348 392 -740 828 -808 899 -309 319 -707 527 -1151 601
-114 19 -416 27 -555 15z m492 -265 c702 -100 1270 -597 1467 -1285 49 -174
47 -148 146 -1505 17 -231 44 -600 60 -820 189 -2570 182 -2463 176 -2640 -6
-195 -33 -346 -91 -515 -128 -367 -391 -702 -715 -912 -174 -113 -404 -207
-605 -247 -116 -23 -215 -33 -595 -61 -239 -17 -3077 -224 -3835 -280 -466
-34 -1071 -79 -1316 -96 l-236 -18 -814 -673 c-583 -482 -815 -668 -817 -655
-3 24 -71 964 -79 1096 l-6 108 -51 -5 c-195 -22 -440 -30 -561 -19 -827 76
-1473 674 -1609 1487 -8 50 -47 527 -86 1060 -39 534 -84 1150 -100 1370 -158
2139 -162 2199 -157 2345 7 171 26 293 73 448 169 560 605 1002 1164 1180 184
58 280 72 780 107 195 14 474 34 620 45 146 11 1005 74 1910 140 905 66 1764
129 1910 140 146 11 459 34 695 51 237 17 840 62 1340 99 956 71 1160 80 1332
55z"/>
</g>
</svg>
